<svg id="Capa_1" enable-background="new 0 0 496.187 496.187" height="512" viewBox="0 0 496.187 496.187" width="512" xmlns="http://www.w3.org/2000/svg"><g><path d="m286.132 75.274h-37.692v-32.742c0-19.958 16.179-36.137 36.137-36.137h31.118c3.631 0 6.574 2.943 6.574 6.574v26.168c0 19.958-16.179 36.137-36.137 36.137z" fill="#80d261"/><path d="m251.657 65.587c0-19.958 16.179-36.137 36.137-36.137h31.118c1.228 0 2.374.343 3.357.929v-17.41c0-3.631-2.943-6.574-6.574-6.574h-31.118c-19.958 0-36.137 16.179-36.137 36.137v32.742h3.217z" fill="#68ca44"/><g><path d="m248.44 110.818c-4.142 0-7.5-3.358-7.5-7.5v-61.396c0-9.265-3.608-17.976-10.159-24.527-2.929-2.929-2.929-7.678 0-10.606 2.929-2.929 7.678-2.93 10.606 0 9.385 9.385 14.553 21.862 14.553 35.134v61.396c0 4.141-3.358 7.499-7.5 7.499z" fill="#bc7c63"/></g><g><path d="m248.445 102.554c80.16 0 145.15 64.98 145.15 145.15s-64.99 145.16-145.15 145.16c-80.17 0-145.16-64.99-145.16-145.16s64.99-145.15 145.16-145.15z" fill="#fec165"/></g><path d="m145.16 169.289c-6.62 0-13.151.382-19.583 1.101-14.117 22.385-22.292 48.892-22.292 77.314 0 80.17 64.99 145.16 145.16 145.16 25.028 0 48.576-6.336 69.13-17.491 1.797-10.044 2.735-20.382 2.735-30.934 0-96.578-78.572-175.15-175.15-175.15z" fill="#fdb441"/><path d="m175.877 346.436c0 9.636.795 19.088 2.299 28.306 20.822 11.542 44.776 18.122 70.269 18.122 80.16 0 145.15-64.99 145.15-145.16 0-27.48-7.638-53.174-20.903-75.079-7.097-.879-14.323-1.338-21.655-1.338-96.583-.001-175.16 78.571-175.16 175.149z" fill="#fdb441"/><path d="m388.724 199.232h-37.692v-32.742c0-19.958 16.179-36.137 36.137-36.137h31.118c3.631 0 6.574 2.943 6.574 6.574v26.168c0 19.958-16.179 36.137-36.137 36.137z" fill="#80d261"/><path d="m356.681 186.848c0-19.958 16.179-36.137 36.137-36.137h31.118c.315 0 .622.03.926.073v-13.857c0-3.631-2.943-6.574-6.574-6.574h-31.118c-19.958 0-36.137 16.179-36.137 36.137v32.742h5.648z" fill="#68ca44"/><g><path d="m351.032 205.732c-4.142 0-7.5-3.358-7.5-7.5v-58.396c0-9.265-3.608-17.976-10.159-24.527-2.929-2.929-2.929-7.678 0-10.606 2.929-2.929 7.678-2.929 10.606 0 9.384 9.384 14.553 21.862 14.553 35.134v58.396c0 4.141-3.358 7.499-7.5 7.499z" fill="#bc7c63"/></g><g id="XMLID_190_"><g><path d="m351.037 201.286c80.16 0 145.15 64.98 145.15 145.15s-64.99 145.16-145.15 145.16c-80.17 0-145.16-64.99-145.16-145.16s64.99-145.15 145.16-145.15z" fill="#fea613"/></g></g><path d="m296.459 346.436c0-64.352 41.879-118.908 99.867-137.934-14.252-4.677-29.473-7.216-45.289-7.216-80.17 0-145.16 64.98-145.16 145.15s64.99 145.16 145.16 145.16c15.816 0 31.037-2.539 45.289-7.217-57.988-19.029-99.867-73.591-99.867-137.943z" fill="#fe9901"/><g id="XMLID_189_"><g><path d="m145.16 199.289c80.16 0 145.15 64.98 145.15 145.15s-64.99 145.16-145.15 145.16c-80.17 0-145.16-64.99-145.16-145.16s64.99-145.15 145.16-145.15z" fill="#fea613"/></g></g><path d="m97.107 344.439c0-63.139 40.315-116.846 96.604-136.82-15.182-5.388-31.522-8.33-48.551-8.33-80.17 0-145.16 64.98-145.16 145.15s64.99 145.16 145.16 145.16c17.029 0 33.369-2.943 48.551-8.331-56.289-19.977-96.604-73.69-96.604-136.829z" fill="#fe9901"/><g><g><path d="m220.73 268.869c19.34 19.34 31.3 46.06 31.3 75.57s-11.96 56.23-31.3 75.58c-19.34 19.34-46.06 31.3-75.57 31.3-29.52 0-56.24-11.96-75.58-31.3-19.34-19.35-31.3-46.07-31.3-75.58s11.96-56.23 31.3-75.57 46.06-31.3 75.58-31.3c29.51 0 56.23 11.96 75.57 31.3z" fill="#fec165"/></g><path d="m144.036 237.583c-29.073.3-55.362 12.192-74.456 31.286-19.34 19.34-31.3 46.06-31.3 75.57s11.96 56.23 31.3 75.58c19.095 19.095 45.386 30.987 74.461 31.286-28.851-26.527-46.934-64.582-46.934-106.866 0-42.282 18.081-80.332 46.929-106.856z" fill="#fdb441"/><path d="m145.16 237.569c-2.522 0-5.022.094-7.5.266v74.354c0 4.142 3.358 7.5 7.5 7.5s7.5-3.358 7.5-7.5v-74.354c-2.478-.172-4.978-.266-7.5-.266z" fill="#fdb441"/><g><path d="m145.16 384.199c-10.631 0-20.617-4.138-28.118-11.651-7.506-7.505-11.643-17.49-11.643-28.109 0-10.626 4.138-20.608 11.652-28.108 7.491-7.504 17.477-11.642 28.108-11.642 10.625 0 20.607 4.138 28.108 11.651 7.504 7.491 11.642 17.474 11.642 28.099 0 10.619-4.136 20.603-11.647 28.113-7.495 7.509-17.477 11.647-28.102 11.647zm0-64.51c-6.62 0-12.836 2.574-17.502 7.249-4.684 4.675-7.258 10.887-7.258 17.501 0 6.612 2.576 12.83 7.253 17.506 4.671 4.68 10.887 7.254 17.507 7.254 6.613 0 12.825-2.574 17.492-7.249 4.682-4.682 7.258-10.899 7.258-17.511 0-6.613-2.574-12.826-7.249-17.492-4.675-4.684-10.888-7.258-17.501-7.258z" fill="#fdb441"/></g><g fill="#fdb441"><path d="m220.73 268.869c-1.769-1.769-3.601-3.475-5.49-5.116l-52.574 52.573c-2.929 2.929-2.929 7.678 0 10.606 1.464 1.465 3.384 2.197 5.303 2.197s3.839-.732 5.303-2.197l52.574-52.573c-1.641-1.889-3.347-3.721-5.116-5.49z"/><path d="m252.03 344.439c0-2.522-.094-5.022-.266-7.5h-74.354c-4.142 0-7.5 3.358-7.5 7.5s3.358 7.5 7.5 7.5h74.354c.172-2.479.266-4.978.266-7.5z"/><path d="m225.845 414.528-52.572-52.582c-2.928-2.929-7.677-2.93-10.606-.001s-2.93 7.677-.001 10.606l52.574 52.584c1.889-1.642 3.721-3.348 5.49-5.117 1.768-1.769 3.474-3.601 5.115-5.49z"/><path d="m145.16 369.199c-4.142 0-7.5 3.358-7.5 7.5v74.354c2.478.172 4.978.266 7.5.266s5.022-.094 7.5-.266v-74.354c0-4.142-3.358-7.5-7.5-7.5z"/></g><path d="m137.66 445.051v5.993c.158.011.315.024.473.034.806.053 1.615.093 2.426.128.711.03 1.424.052 2.139.068.445.011.891.019 1.338.024-2.192-2.014-4.313-4.103-6.376-6.247z" fill="#fea613"/><path d="m117.047 361.946-52.582 52.582c1.642 1.889 3.347 3.722 5.115 5.491 1.769 1.769 3.601 3.475 5.49 5.117l52.583-52.583c2.929-2.929 2.929-7.678 0-10.606-2.928-2.93-7.677-2.93-10.606-.001z" fill="#fdb441"/><path d="m69.58 420.019c1.769 1.769 3.6 3.475 5.489 5.117l30.839-30.839c-1.939-5.301-3.578-10.747-4.896-16.317l-36.548 36.548c1.642 1.889 3.348 3.721 5.116 5.491z" fill="#fea613"/><path d="m112.9 336.939h-74.354c-.172 2.478-.266 4.978-.266 7.5s.094 5.022.266 7.5h74.354c4.142 0 7.5-3.358 7.5-7.5s-3.358-7.5-7.5-7.5z" fill="#fdb441"/><path d="m97.107 344.439c0-2.516.069-5.016.195-7.5h-58.756c-.172 2.478-.266 4.978-.266 7.5s.094 5.022.266 7.5h58.756c-.126-2.485-.195-4.984-.195-7.5z" fill="#fea613"/><path d="m64.463 274.359 52.584 52.574c1.464 1.464 3.383 2.196 5.303 2.196s3.839-.732 5.304-2.197c2.929-2.929 2.928-7.678-.001-10.606l-52.583-52.574c-1.889 1.642-3.721 3.348-5.49 5.117s-3.475 3.601-5.117 5.49z" fill="#fdb441"/><path d="m64.464 274.358 36.548 36.542c1.318-5.57 2.956-11.015 4.896-16.316l-30.838-30.833c-1.889 1.642-3.72 3.348-5.489 5.117-1.77 1.77-3.476 3.602-5.117 5.49z" fill="#fea613"/></g></g></svg>